<svg xmlns="http://www.w3.org/2000/svg" xmlns:xlink="http://www.w3.org/1999/xlink" width="1500" zoomAndPan="magnify" viewBox="0 0 1125 1124.99995" height="1500" preserveAspectRatio="xMidYMid meet" version="1.0"><defs><g/><clipPath id="id1"><path d="M 131 351 L 1007 351 L 1007 831 L 131 831 Z M 131 351 " clip-rule="nonzero"/></clipPath><clipPath id="id2"><path d="M 126.011719 442.675781 L 967.261719 346.320312 L 1012.324219 739.75 L 171.074219 836.105469 Z M 126.011719 442.675781 " clip-rule="nonzero"/></clipPath><clipPath id="id3"><path d="M 573 454 L 767 454 L 767 583.488281 L 573 583.488281 Z M 573 454 " clip-rule="nonzero"/></clipPath></defs><g clip-path="url(#id1)"><g clip-path="url(#id2)"><path fill="#141414" d="M 178.160156 436.703125 L 915.113281 352.292969 C 943.914062 348.996094 969.9375 369.675781 973.238281 398.484375 L 1006.351562 687.585938 C 1009.652344 716.394531 988.976562 742.421875 960.175781 745.722656 L 223.222656 830.132812 C 194.421875 833.429688 168.402344 812.75 165.101562 783.941406 L 131.988281 494.839844 C 128.6875 466.03125 149.359375 440.003906 178.160156 436.703125 " fill-opacity="1" fill-rule="nonzero"/></g></g><path fill="#f1c402" d="M 524.054688 540.121094 C 518.917969 539.636719 513.867188 538.683594 508.90625 537.265625 C 509.421875 543.417969 510.351562 549.503906 511.699219 555.527344 C 513.023438 561.5625 514.769531 567.46875 516.933594 573.257812 C 531.703125 574.347656 547.179688 572.167969 562.417969 567.328125 L 562.984375 567.175781 L 563.09375 567.175781 L 563.390625 567.101562 C 557.863281 558.382812 553.453125 549.136719 550.160156 539.359375 C 541.488281 540.703125 532.789062 540.957031 524.054688 540.121094 Z M 524.054688 540.121094 " fill-opacity="1" fill-rule="nonzero"/><path fill="#f1c402" d="M 508.675781 533.8125 C 512.394531 534.652344 516.152344 535.257812 519.945312 535.632812 C 529.558594 536.539062 539.125 536.175781 548.640625 534.542969 C 547.628906 531.085938 546.734375 527.535156 545.980469 523.929688 C 544.433594 516.511719 543.523438 509.019531 543.242188 501.449219 C 536.066406 502.269531 528.878906 502.332031 521.691406 501.632812 C 518.085938 501.28125 514.519531 500.707031 510.988281 499.902344 C 508.789062 511.109375 508.015625 522.410156 508.675781 533.8125 Z M 508.675781 533.8125 " fill-opacity="1" fill-rule="nonzero"/><path fill="#f1c402" d="M 729.929688 338.625 C 728.488281 329.832031 722.773438 323.804688 715.878906 323.804688 L 634.792969 323.804688 C 634.375 320.441406 633.78125 317.109375 633.007812 313.8125 C 632.234375 310.511719 631.285156 307.265625 630.164062 304.066406 C 629.042969 300.867188 627.753906 297.738281 626.296875 294.679688 C 624.839844 291.621094 623.222656 288.644531 621.449219 285.757812 C 619.671875 282.871094 617.746094 280.085938 615.675781 277.40625 C 613.601562 274.726562 611.390625 272.160156 609.039062 269.71875 C 606.691406 267.273438 604.21875 264.960938 601.621094 262.777344 C 599.027344 260.597656 596.320312 258.5625 593.507812 256.671875 C 592.355469 255.890625 591.175781 255.152344 589.96875 254.457031 C 588.761719 253.765625 587.527344 253.117188 586.273438 252.511719 C 585.019531 251.910156 583.742188 251.355469 582.445312 250.847656 C 581.148438 250.34375 579.832031 249.882812 578.5 249.476562 C 577.171875 249.066406 575.824219 248.707031 574.46875 248.398438 C 573.109375 248.089844 571.742188 247.832031 570.363281 247.625 C 568.988281 247.417969 567.605469 247.261719 566.214844 247.160156 C 564.828125 247.054688 563.433594 247.003906 562.042969 247.003906 C 560.648438 247.003906 559.257812 247.054688 557.871094 247.160156 C 556.480469 247.261719 555.097656 247.417969 553.71875 247.625 C 552.34375 247.832031 550.976562 248.089844 549.617188 248.398438 C 548.257812 248.707031 546.914062 249.066406 545.582031 249.476562 C 544.253906 249.882812 542.9375 250.34375 541.640625 250.847656 C 540.34375 251.355469 539.066406 251.910156 537.8125 252.511719 C 536.554688 253.117188 535.324219 253.765625 534.117188 254.457031 C 532.910156 255.152344 531.730469 255.890625 530.578125 256.671875 C 510.136719 270.457031 494.34375 293.085938 490.222656 323.792969 L 409.164062 323.792969 C 402.238281 323.792969 396.554688 329.820312 395.09375 338.613281 L 358.902344 558.566406 C 357.082031 569.691406 364.921875 580.882812 374.445312 580.882812 L 442.628906 580.882812 C 426.800781 575.421875 412.257812 567.582031 399 557.359375 C 418.339844 567.960938 440.273438 574.585938 463.746094 577.296875 C 465.011719 577.453125 466.277344 577.582031 467.542969 577.703125 L 467.71875 577.703125 C 464.617188 570.59375 462.15625 563.273438 460.332031 555.734375 C 443.359375 485.429688 486.261719 413.242188 557.554688 397.585938 C 564.289062 396.101562 571.097656 395.183594 577.984375 394.828125 L 581.671875 394.695312 L 582.445312 394.695312 L 584.507812 394.804688 L 596.332031 395.4375 L 599.710938 395.621094 L 605.328125 395.929688 C 604.914062 396.027344 604.5 396.144531 604.074219 396.265625 C 651.613281 403.894531 691.335938 438.652344 705.167969 486.585938 C 712.796875 479.742188 720.105469 472.660156 727.09375 465.339844 C 734.082031 458.015625 740.738281 450.503906 747.066406 442.804688 Z M 506.789062 323.804688 C 512.953125 282.398438 527.742188 260.015625 561.164062 260.015625 C 594.585938 260.015625 609.355469 282.375 615.527344 323.804688 Z M 506.789062 323.804688 " fill-opacity="1" fill-rule="nonzero"/><path fill="#f1c402" d="M 588.28125 405.667969 C 585.402344 408.671875 582.660156 411.792969 580.058594 415.039062 C 577.457031 418.285156 575.007812 421.640625 572.707031 425.101562 C 570.40625 428.566406 568.265625 432.128906 566.28125 435.78125 C 564.300781 439.4375 562.484375 443.175781 560.835938 446.992188 C 559.1875 450.808594 557.714844 454.691406 556.414062 458.640625 C 555.113281 462.589844 553.992188 466.589844 553.050781 470.640625 C 552.105469 474.6875 551.347656 478.773438 550.769531 482.886719 C 550.191406 487.003906 549.800781 491.140625 549.589844 495.292969 C 555.246094 494.1875 560.808594 492.738281 566.28125 490.933594 L 566.859375 490.792969 L 566.976562 490.738281 C 574.027344 488.824219 580.773438 486.148438 587.214844 482.710938 C 593.660156 479.277344 599.640625 475.167969 605.15625 470.382812 C 611.234375 465.152344 616.640625 459.304688 621.382812 452.839844 C 626.121094 446.375 630.074219 439.460938 633.230469 432.09375 C 631.769531 436.429688 630.023438 440.648438 628 444.75 C 625.972656 448.851562 623.679688 452.800781 621.125 456.597656 C 618.570312 460.394531 615.773438 464.003906 612.734375 467.425781 C 609.695312 470.847656 606.441406 474.054688 602.972656 477.039062 C 597.789062 481.511719 592.183594 485.375 586.160156 488.628906 C 580.136719 491.882812 573.835938 494.453125 567.25 496.339844 L 567.25 496.261719 C 561.410156 498.105469 555.46875 499.53125 549.429688 500.542969 C 549.285156 510.636719 550.238281 520.625 552.285156 530.507812 C 552.503906 531.597656 552.742188 532.6875 552.984375 533.703125 C 558.089844 532.667969 563.117188 531.34375 568.070312 529.726562 L 568.660156 529.582031 L 568.757812 529.582031 C 575.695312 527.726562 582.339844 525.128906 588.695312 521.789062 C 595.054688 518.449219 600.960938 514.445312 606.421875 509.785156 C 612.402344 504.710938 617.734375 499.03125 622.414062 492.738281 C 627.09375 486.445312 631.003906 479.707031 634.136719 472.519531 C 632.6875 476.75 630.960938 480.867188 628.957031 484.867188 C 626.957031 488.867188 624.695312 492.714844 622.171875 496.410156 C 619.652344 500.109375 616.894531 503.621094 613.902344 506.945312 C 610.910156 510.273438 607.707031 513.382812 604.292969 516.277344 C 599.164062 520.640625 593.625 524.410156 587.683594 527.578125 C 581.738281 530.746094 575.523438 533.246094 569.039062 535.074219 L 569.039062 535 C 564.175781 536.511719 559.242188 537.742188 554.238281 538.683594 C 556.851562 548.410156 560.53125 557.714844 565.289062 566.597656 C 571.695312 564.734375 577.835938 562.226562 583.71875 559.078125 C 589.601562 555.929688 595.089844 552.207031 600.191406 547.910156 C 606.074219 542.988281 611.316406 537.464844 615.921875 531.332031 C 620.527344 525.203125 624.375 518.632812 627.460938 511.617188 C 626.035156 515.746094 624.339844 519.761719 622.371094 523.660156 C 620.402344 527.5625 618.175781 531.3125 615.699219 534.910156 C 613.21875 538.511719 610.511719 541.925781 607.570312 545.160156 C 604.628906 548.394531 601.480469 551.414062 598.132812 554.21875 C 594.496094 557.230469 590.65625 559.957031 586.613281 562.390625 C 615.40625 551.386719 642.375 536.964844 667.515625 519.132812 C 678.160156 511.660156 688.339844 503.75 698.054688 495.414062 C 699.070312 494.550781 700.074219 493.679688 701.089844 492.785156 C 684.421875 442.050781 639.417969 407.183594 588.28125 405.667969 Z M 588.28125 405.667969 " fill-opacity="1" fill-rule="nonzero"/><path fill="#f1c402" d="M 518.558594 577.40625 C 518.820312 578.0625 519.105469 578.703125 519.378906 579.347656 C 522.648438 578.933594 526.03125 578.453125 529.390625 577.886719 C 525.902344 577.933594 522.421875 577.789062 518.953125 577.453125 Z M 518.558594 577.40625 " fill-opacity="1" fill-rule="nonzero"/><path fill="#f1c402" d="M 543.144531 496.371094 C 543.164062 488.832031 543.785156 481.34375 545.015625 473.910156 C 546.246094 466.472656 548.066406 459.179688 550.476562 452.039062 C 552.886719 444.894531 555.855469 437.992188 559.382812 431.328125 C 562.910156 424.664062 566.953125 418.328125 571.503906 412.316406 C 541.074219 430.523438 519.648438 461.296875 511.785156 496.21875 C 513.683594 496.535156 515.601562 496.785156 517.566406 496.980469 C 526.117188 497.792969 534.644531 497.589844 543.144531 496.371094 Z M 543.144531 496.371094 " fill-opacity="1" fill-rule="nonzero"/><path fill="#f1c402" d="M 474.722656 557.554688 C 484.722656 565.683594 497.628906 571.097656 513.160156 572.898438 C 509.777344 565.199219 507.171875 557.25 505.351562 549.042969 C 504.332031 544.503906 503.558594 539.925781 503.027344 535.304688 C 498.527344 533.621094 494.273438 531.464844 490.257812 528.832031 C 486.246094 526.195312 482.570312 523.152344 479.238281 519.699219 C 486.234375 525.40625 494.058594 529.578125 502.699219 532.210938 C 501.632812 520.730469 502.0625 509.308594 503.988281 497.941406 C 498.710938 496.261719 493.722656 493.957031 489.027344 491.027344 C 484.332031 488.09375 480.070312 484.628906 476.246094 480.625 C 480.378906 484.027344 484.839844 486.921875 489.625 489.3125 C 494.414062 491.703125 499.40625 493.53125 504.609375 494.792969 C 505.457031 490.386719 506.523438 486.035156 507.808594 481.738281 C 509.09375 477.441406 510.589844 473.21875 512.296875 469.070312 C 514 464.921875 515.910156 460.867188 518.023438 456.910156 C 520.132812 452.953125 522.4375 449.109375 524.933594 445.378906 C 527.429688 441.652344 530.101562 438.058594 532.957031 434.597656 C 535.8125 431.132812 538.832031 427.824219 542.019531 424.664062 C 545.203125 421.503906 548.539062 418.507812 552.023438 415.679688 C 555.511719 412.855469 559.128906 410.207031 562.878906 407.738281 C 561.839844 407.945312 560.804688 408.152344 559.769531 408.382812 C 491.050781 423.429688 450.035156 494.847656 466.746094 564.855469 C 468.027344 570.234375 469.636719 575.511719 471.578125 580.6875 C 485.394531 581.730469 499.191406 581.546875 512.972656 580.132812 L 515.820312 579.835938 L 516.453125 579.761719 C 515.984375 578.855469 515.527344 577.941406 515.078125 577.027344 C 498.261719 574.585938 484.601562 567.699219 474.722656 557.554688 Z M 474.722656 557.554688 " fill-opacity="1" fill-rule="nonzero"/><g clip-path="url(#id3)"><path fill="#f1c402" d="M 766.121094 561.160156 L 748.601562 454.582031 C 735.746094 473.117188 721.175781 490.1875 704.882812 505.796875 C 703.722656 506.914062 702.554688 508.003906 701.382812 509.066406 C 691.148438 518.636719 680.367188 527.542969 669.03125 535.785156 C 638.097656 558.304688 605.582031 574.105469 573.632812 583.410156 L 750.589844 583.410156 C 760.109375 583.476562 767.964844 572.285156 766.121094 561.160156 Z M 704.589844 564.714844 C 706.445312 556.503906 707.519531 548.195312 707.808594 539.789062 C 708.097656 531.378906 707.597656 523.015625 706.3125 514.699219 C 706.039062 512.910156 705.746094 511.125 705.410156 509.359375 C 706.566406 508.269531 707.730469 507.179688 708.878906 506.027344 C 708.878906 506.089844 708.878906 506.144531 708.878906 506.199219 C 710.371094 515.988281 710.757812 525.820312 710.03125 535.699219 C 709.308594 545.574219 707.496094 555.246094 704.589844 564.714844 Z M 704.589844 564.714844 " fill-opacity="1" fill-rule="nonzero"/></g><g fill="#f1c402" fill-opacity="1"><g transform="translate(152.367346, 715.431662)"><g><path d="M 9.859375 0 L 9.859375 -80.234375 L 68.65625 -80.234375 L 68.65625 -66.8125 L 25.21875 -66.8125 L 25.21875 -46.984375 L 64.1875 -46.984375 L 64.1875 -33.578125 L 25.21875 -33.578125 L 25.21875 -13.40625 L 70.03125 -13.40625 L 70.03125 0 Z M 9.859375 0 "/></g></g></g><g fill="#f1c402" fill-opacity="1"><g transform="translate(228.124126, 715.431662)"><g><path d="M 6.765625 -29.796875 L 6.765625 -40.109375 L 35.53125 -40.109375 L 35.53125 -29.796875 Z M 6.765625 -29.796875 "/></g></g></g><g fill="#ffffff" fill-opacity="1"><g transform="translate(270.527492, 715.431662)"><g><path d="M 67.96875 -57.078125 C 65.132812 -60.359375 61.785156 -62.914062 57.921875 -64.75 C 54.066406 -66.582031 50.15625 -67.5 46.1875 -67.5 C 41.21875 -67.5 36.671875 -66.316406 32.546875 -63.953125 C 28.421875 -61.585938 25.171875 -58.320312 22.796875 -54.15625 C 20.429688 -49.988281 19.25 -45.421875 19.25 -40.453125 C 19.25 -35.484375 20.429688 -30.914062 22.796875 -26.75 C 25.171875 -22.59375 28.421875 -19.3125 32.546875 -16.90625 C 36.671875 -14.5 41.21875 -13.296875 46.1875 -13.296875 C 50.007812 -13.296875 53.847656 -14.132812 57.703125 -15.8125 C 61.566406 -17.5 64.988281 -19.832031 67.96875 -22.8125 L 77.015625 -12.71875 C 72.816406 -8.4375 67.925781 -5.054688 62.34375 -2.578125 C 56.769531 -0.0976562 51.117188 1.140625 45.390625 1.140625 C 37.671875 1.140625 30.601562 -0.691406 24.1875 -4.359375 C 17.769531 -8.023438 12.722656 -13.007812 9.046875 -19.3125 C 5.378906 -25.613281 3.546875 -32.585938 3.546875 -40.234375 C 3.546875 -47.867188 5.414062 -54.816406 9.15625 -61.078125 C 12.90625 -67.347656 18.007812 -72.28125 24.46875 -75.875 C 30.925781 -79.46875 38.085938 -81.265625 45.953125 -81.265625 C 51.679688 -81.265625 57.296875 -80.113281 62.796875 -77.8125 C 68.304688 -75.519531 73.007812 -72.351562 76.90625 -68.3125 Z M 67.96875 -57.078125 "/></g></g></g><g fill="#ffffff" fill-opacity="1"><g transform="translate(350.295598, 715.431662)"><g><path d="M 46.296875 -81.265625 C 54.242188 -81.265625 61.484375 -79.46875 68.015625 -75.875 C 74.546875 -72.28125 79.679688 -67.347656 83.421875 -61.078125 C 87.171875 -54.816406 89.046875 -47.867188 89.046875 -40.234375 C 89.046875 -32.585938 87.171875 -25.613281 83.421875 -19.3125 C 79.679688 -13.007812 74.546875 -8.023438 68.015625 -4.359375 C 61.484375 -0.691406 54.242188 1.140625 46.296875 1.140625 C 38.359375 1.140625 31.117188 -0.691406 24.578125 -4.359375 C 18.046875 -8.023438 12.90625 -13.007812 9.15625 -19.3125 C 5.414062 -25.613281 3.546875 -32.585938 3.546875 -40.234375 C 3.546875 -47.867188 5.414062 -54.816406 9.15625 -61.078125 C 12.90625 -67.347656 18.046875 -72.28125 24.578125 -75.875 C 31.117188 -79.46875 38.359375 -81.265625 46.296875 -81.265625 Z M 46.53125 -67.5 C 41.644531 -67.5 37.097656 -66.296875 32.890625 -63.890625 C 28.691406 -61.484375 25.367188 -58.195312 22.921875 -54.03125 C 20.472656 -49.875 19.25 -45.273438 19.25 -40.234375 C 19.25 -35.179688 20.488281 -30.554688 22.96875 -26.359375 C 25.457031 -22.160156 28.785156 -18.835938 32.953125 -16.390625 C 37.117188 -13.941406 41.644531 -12.71875 46.53125 -12.71875 C 51.34375 -12.71875 55.8125 -13.941406 59.9375 -16.390625 C 64.0625 -18.835938 67.328125 -22.160156 69.734375 -26.359375 C 72.140625 -30.554688 73.34375 -35.179688 73.34375 -40.234375 C 73.34375 -45.273438 72.140625 -49.875 69.734375 -54.03125 C 67.328125 -58.195312 64.0625 -61.484375 59.9375 -63.890625 C 55.8125 -66.296875 51.34375 -67.5 46.53125 -67.5 Z M 46.53125 -67.5 "/></g></g></g><g fill="#ffffff" fill-opacity="1"><g transform="translate(443.014557, 715.431662)"><g><path d="M 9.859375 0 L 9.859375 -80.234375 L 27.390625 -80.234375 L 53.984375 -28.53125 L 80.34375 -80.234375 L 97.875 -80.234375 L 97.875 0 L 83.78125 0 L 83.78125 -57.53125 L 58.796875 -8.25 L 48.9375 -8.25 L 23.84375 -57.53125 L 23.84375 0 Z M 9.859375 0 "/></g></g></g><g fill="#ffffff" fill-opacity="1"><g transform="translate(550.747363, 715.431662)"><g><path d="M 9.859375 0 L 9.859375 -80.234375 L 27.390625 -80.234375 L 53.984375 -28.53125 L 80.34375 -80.234375 L 97.875 -80.234375 L 97.875 0 L 83.78125 0 L 83.78125 -57.53125 L 58.796875 -8.25 L 48.9375 -8.25 L 23.84375 -57.53125 L 23.84375 0 Z M 9.859375 0 "/></g></g></g><g fill="#ffffff" fill-opacity="1"><g transform="translate(658.480157, 715.431662)"><g><path d="M 9.859375 0 L 9.859375 -80.234375 L 68.65625 -80.234375 L 68.65625 -66.8125 L 25.21875 -66.8125 L 25.21875 -46.984375 L 64.1875 -46.984375 L 64.1875 -33.578125 L 25.21875 -33.578125 L 25.21875 -13.40625 L 70.03125 -13.40625 L 70.03125 0 Z M 9.859375 0 "/></g></g></g><g fill="#ffffff" fill-opacity="1"><g transform="translate(734.236925, 715.431662)"><g><path d="M 77.59375 0 L 60.0625 0 L 46.1875 -23.71875 C 45.570312 -23.644531 44.617188 -23.609375 43.328125 -23.609375 L 25.21875 -23.609375 L 25.21875 0 L 9.859375 0 L 9.859375 -80.234375 L 43.328125 -80.234375 C 53.710938 -80.234375 61.734375 -77.820312 67.390625 -73 C 73.046875 -68.1875 75.875 -61.390625 75.875 -52.609375 C 75.875 -46.335938 74.515625 -40.984375 71.796875 -36.546875 C 69.085938 -32.117188 65.132812 -28.800781 59.9375 -26.59375 Z M 25.21875 -66.8125 L 25.21875 -37.140625 L 43.328125 -37.140625 C 49.128906 -37.140625 53.554688 -38.398438 56.609375 -40.921875 C 59.671875 -43.441406 61.203125 -47.179688 61.203125 -52.140625 C 61.203125 -57.035156 59.671875 -60.703125 56.609375 -63.140625 C 53.554688 -65.585938 49.128906 -66.8125 43.328125 -66.8125 Z M 25.21875 -66.8125 "/></g></g></g><g fill="#ffffff" fill-opacity="1"><g transform="translate(817.099466, 715.431662)"><g><path d="M 67.96875 -57.078125 C 65.132812 -60.359375 61.785156 -62.914062 57.921875 -64.75 C 54.066406 -66.582031 50.15625 -67.5 46.1875 -67.5 C 41.21875 -67.5 36.671875 -66.316406 32.546875 -63.953125 C 28.421875 -61.585938 25.171875 -58.320312 22.796875 -54.15625 C 20.429688 -49.988281 19.25 -45.421875 19.25 -40.453125 C 19.25 -35.484375 20.429688 -30.914062 22.796875 -26.75 C 25.171875 -22.59375 28.421875 -19.3125 32.546875 -16.90625 C 36.671875 -14.5 41.21875 -13.296875 46.1875 -13.296875 C 50.007812 -13.296875 53.847656 -14.132812 57.703125 -15.8125 C 61.566406 -17.5 64.988281 -19.832031 67.96875 -22.8125 L 77.015625 -12.71875 C 72.816406 -8.4375 67.925781 -5.054688 62.34375 -2.578125 C 56.769531 -0.0976562 51.117188 1.140625 45.390625 1.140625 C 37.671875 1.140625 30.601562 -0.691406 24.1875 -4.359375 C 17.769531 -8.023438 12.722656 -13.007812 9.046875 -19.3125 C 5.378906 -25.613281 3.546875 -32.585938 3.546875 -40.234375 C 3.546875 -47.867188 5.414062 -54.816406 9.15625 -61.078125 C 12.90625 -67.347656 18.007812 -72.28125 24.46875 -75.875 C 30.925781 -79.46875 38.085938 -81.265625 45.953125 -81.265625 C 51.679688 -81.265625 57.296875 -80.113281 62.796875 -77.8125 C 68.304688 -75.519531 73.007812 -72.351562 76.90625 -68.3125 Z M 67.96875 -57.078125 "/></g></g></g><g fill="#ffffff" fill-opacity="1"><g transform="translate(896.867572, 715.431662)"><g><path d="M 9.859375 0 L 9.859375 -80.234375 L 68.65625 -80.234375 L 68.65625 -66.8125 L 25.21875 -66.8125 L 25.21875 -46.984375 L 64.1875 -46.984375 L 64.1875 -33.578125 L 25.21875 -33.578125 L 25.21875 -13.40625 L 70.03125 -13.40625 L 70.03125 0 Z M 9.859375 0 "/></g></g></g></svg>